<svg xmlns="http://www.w3.org/2000/svg" viewBox="0 0 300 400" width="300" height="400"><defs id="twestf-defs4">
    <mask maskUnits="userSpaceOnUse" id="twestf-mask4222-0">
      <rect ry="40" y="652.28" x="0" height="400.78" width="300.06" id="twestf-rect4224-8" style="opacity:1;fill:#ff3737;fill-opacity:1;fill-rule:nonzero;stroke:none;stroke-width:10;stroke-linecap:butt;stroke-linejoin:round;stroke-miterlimit:4;stroke-dasharray:none;stroke-dashoffset:0;stroke-opacity:1" />
    </mask>
    <filter style="color-interpolation-filters:sRGB" id="twestf-filter4198-8">
      <feGaussianBlur stdDeviation="2.51 2.51" result="blur" id="twestf-feGaussianBlur4200-3" />
    </filter>
    <mask maskUnits="userSpaceOnUse" id="twestf-mask4216-0">
      <rect ry="40" y="-1325.6" x="-451.94" height="400.78" width="300.06" id="twestf-rect4218-5" style="opacity:1;fill:#ff3737;fill-opacity:1;fill-rule:nonzero;stroke:none;stroke-width:10;stroke-linecap:butt;stroke-linejoin:round;stroke-miterlimit:4;stroke-dasharray:none;stroke-dashoffset:0;stroke-opacity:1" transform="scale(-1,-1)" />
    </mask>
    </defs>
  <g id="twestf-layer1" transform="translate(0,-652.36)">
    <rect style="opacity:1;fill:#f5f0eb;fill-opacity:1;fill-rule:nonzero;stroke:none;stroke-width:10;stroke-linecap:butt;stroke-linejoin:round;stroke-miterlimit:4;stroke-dasharray:none;stroke-dashoffset:0;stroke-opacity:1" id="twestf-rect4164" width="300.06" height="400.78" x="0" y="652.28" ry="40" />
    <path transform="translate(-1.34e-7,-1.34e-6)" style="fill:#ffffff;fill-opacity:1;fill-rule:evenodd;stroke:none;stroke-width:1px;stroke-linecap:butt;stroke-linejoin:miter;stroke-opacity:1;filter:url(#twestf-filter4198-8)" d="M -4.77,775.07 C -9.65,741.99 -16.85,674.24 -1.28,652.06 19,625.94 233.5,631.63 263.31,653.91 276.21,662.65 70.35,663.12 47.1,691.74 24.39,719.11 0.65,818.19 -4.77,775.07 Z" id="twestf-path4166" mask="url(#twestf-mask4222-0)" />
    <path id="twestf-path4221" d="m 151.74,1025.02 c -3.33,-9.31 -10.25,-68.45 5.32,-90.63 20.28,-26.12 219.44,-16.46 231.56,-9.93 11.07,5.32 -178.6,0.06 -204.85,34.87 -21.59,30 -26.5,82.18 -32.02,65.69 z" style="fill:#000000;fill-opacity:0.2;fill-rule:evenodd;stroke:none;stroke-width:1px;stroke-linecap:butt;stroke-linejoin:miter;stroke-opacity:1;filter:url(#twestf-filter4198-8)" transform="matrix(-1,0,0,-1,451.94,1977.89)" mask="url(#twestf-mask4216-0)" />
  </g>
<defs id="twesta-defs4">
    </defs>
  <g id="twesta-layer1" transform="translate(0,-652.36)">
    <g id="twesta-g4192" transform="matrix(0.85,0,0,0.94,19.53,57.11)">
      <path id="twesta-path4166" d="m 18.3,756.6 c -9.59,1.25 -21.04,-11.13 -7.34,-14.66 43.69,-8.45 191.76,-31.91 208.72,-38.97 14.88,-4.48 48.78,19.65 69.77,30.82 13.04,7.63 7.1,16.27 -2.94,20.17 -8.12,2.45 -55.98,6.85 -81.61,3.76 -4.89,-0.5 -3.03,-12.31 -13.96,-14 C 140.83,734.42 69.22,750.34 18.3,756.6 Z" style="fill:#19328c;fill-opacity:1;fill-rule:evenodd;stroke:none;stroke-width:1px;stroke-linecap:butt;stroke-linejoin:miter;stroke-opacity:1" />
      <path id="twesta-path4168" d="m 202.3,755.16 c -1.28,3.79 -1.92,9.06 -4.62,10.32 -5.18,1.78 -10.93,0.56 -13.81,5 -4.19,6.73 -29.81,25.81 -47.58,39.89 -5.04,3.99 -13.56,1.06 -14.11,-6.39 l -0.07,27.46 12.62,-0.62 c 10.99,-8.59 41.28,-37.36 54.83,-37.7 10.77,-0.85 23.24,-4.17 26.21,-11.34 2.5,-6.41 -4.91,-10.93 -4.23,-14.5 1.07,-4.18 9.94,-8.48 12.91,-8.51 5.08,-0.06 -20.88,-7.65 -22.15,-3.61 z" style="fill:#19328c;fill-opacity:1;fill-rule:evenodd;stroke:none;stroke-width:1px;stroke-linecap:butt;stroke-linejoin:miter;stroke-opacity:1" />
      <path id="twesta-path4170" d="M 44.51,845.65 C 96.65,833.25 219.72,794.8 237.75,801.99 c 22.34,10.87 63.54,36.45 64.11,47.24 0.23,10.5 0.1,11.4 -8.76,19.87 -13.17,12.93 -55.35,77.19 -61.5,101.91 -1.42,6.27 -0.44,18.4 -5.17,23.43 -6.61,7.37 -88.05,-1.13 -141.06,-3.23 -17.92,-0.6 -26.24,-18.98 0.53,-19.54 34.11,-0.61 92.37,-2.02 99.28,-10.49 6.24,-7.95 49.26,-97.45 49.36,-107.09 0.11,-6.05 -10.74,-20.21 -17.19,-24.29 -7.88,-5.57 -118.39,28.03 -167.58,35.02 z" style="fill:#19328c;fill-opacity:1;fill-rule:evenodd;stroke:none;stroke-width:1px;stroke-linecap:butt;stroke-linejoin:miter;stroke-opacity:1" />
      <path id="twesta-path4172" d="m 22.79,858.99 c 13.91,26.91 43.91,76.58 55.89,124.52 l 32.08,-2.13 C 102.83,945.31 83.45,884.03 64.64,853.96 30.77,800.26 -5.53,807.37 22.79,858.99 Z" style="fill:#19328c;fill-opacity:1;fill-rule:evenodd;stroke:none;stroke-width:1px;stroke-linecap:butt;stroke-linejoin:miter;stroke-opacity:1" />
      <path id="twesta-path4174" d="m 121.16,783.92 c -3.21,-15.54 -15.5,-12.92 -13.59,3.5 l 18.46,193.39 14.14,-0.7 z" style="fill:#19328c;fill-opacity:1;fill-rule:evenodd;stroke:none;stroke-width:1px;stroke-linecap:butt;stroke-linejoin:miter;stroke-opacity:1" />
      <path id="twesta-path4176" d="m 189.66,785.12 -13.32,0 -25.13,191.88 12.92,0 z" style="fill:#19328c;fill-opacity:1;fill-rule:evenodd;stroke:none;stroke-width:1px;stroke-linecap:butt;stroke-linejoin:miter;stroke-opacity:1" />
    </g>
  </g>
</svg>